<svg xmlns="http://www.w3.org/2000/svg" xmlns:xlink="http://www.w3.org/1999/xlink" version="1.1" x="0px" y="0px" viewBox="0 0 100 125" style="enable-background:new 0 0 100 100;" xml:space="preserve"><path d="M89.795,64.16c2.555-11.295-2.24-19.754-10.15-22.968c1.325-8.529-1.565-15.821-8.08-19.826  c-7.126-4.381-16.587-2.699-21.739,5.09c-4.143-6.134-11.123-8.665-17.623-6.921c-9.137,2.443-14.39,12.364-11.37,21.332  C11.077,44.09,6.678,55.402,11.305,64H11c-1.657,0-3,1.343-3,3s1.343,3,3,3h0.11c0.338,3.701,1.737,8.778,7.548,11.684  C19.074,81.891,19.534,82,20,82h60c0.466,0,0.926-0.108,1.342-0.316C87.153,78.778,88.552,73.7,88.89,70H89c1.657,0,3-1.343,3-3  C92,65.625,91.057,64.515,89.795,64.16z M54.232,30.601c2.967-5.467,9.325-7.108,14.191-4.122c4.358,2.678,6.24,7.554,5.356,13.58  c-3.383,0-4.69,0.675-5.993,1.208c0.781-3.646-0.14-7.787-3.471-9.81c-1.415-0.863-3.262-0.41-4.121,1.006  c-0.861,1.415-0.41,3.261,1.006,4.121c1.554,0.945,1.256,6.196-2.369,6.36c-0.3-0.207-1.226-1.182-4.408-2.18  C52.642,38.158,52.51,33.777,54.232,30.601z M54.923,47.479c5.067,3.114,6.731,9.21,4.698,16.521H53.77  c1.547-3.968,0.921-9.188-2.954-11.542c-1.415-0.861-3.262-0.41-4.121,1.006c-0.861,1.415-0.41,3.261,1.006,4.121  c0.889,0.541,1.26,2.622,0.401,4.494c-1.396,3.055-6.317,2.52-7.963-1.772C36.732,51.436,46.481,42.298,54.923,47.479z   M33.755,25.332c6.743-1.791,14.742,3.93,12.958,15.04c-2.059,0.413-3.984,0.975-6.546,2.91c1.689-3.998,1.116-9.415-2.851-11.824  c-1.418-0.863-3.261-0.41-4.121,1.006c-0.861,1.415-0.41,3.261,1.006,4.121c1.197,0.728,1.303,4.047-0.436,5.636  c-2.111-1.239-4.407-1.92-6.757-2.107C24.084,34.557,27.407,27.027,33.755,25.332z M23.255,46.332  c4.46-1.187,8.841,0.931,11.239,4.634c-1.441,4.049-1.432,8.866,0.81,13.033H29.77c1.547-3.968,0.921-9.188-2.954-11.542  c-1.414-0.861-3.261-0.41-4.121,1.006c-0.861,1.415-0.41,3.261,1.006,4.121c0.889,0.541,1.26,2.622,0.401,4.494  c-0.964,2.104-2.696,1.802-3.015,1.92C13.311,63.843,13.223,49.011,23.255,46.332z M79.238,76H20.762  c-2.444-1.456-3.3-3.637-3.599-6c22.111,0,35.739,0,65.674,0C82.538,72.362,81.682,74.544,79.238,76z M83.621,64H77.77  c1.547-3.968,0.921-9.188-2.954-11.542c-1.415-0.861-3.261-0.41-4.121,1.006c-0.861,1.415-0.41,3.261,1.006,4.121  c0.889,0.541,1.26,2.622,0.401,4.494c-1.134,2.471-4.235,2.328-6.104,0.877c0.799-4.384,0.485-8.454-0.855-11.967  C71.641,40.637,88.326,47.08,83.621,64z"/><text x="0" y="115" fill="#000000" font-size="5px" font-weight="bold" font-family="'Helvetica Neue', Helvetica, Arial-Unicode, Arial, Sans-serif">Created by Ayub Irawan</text><text x="0" y="120" fill="#000000" font-size="5px" font-weight="bold" font-family="'Helvetica Neue', Helvetica, Arial-Unicode, Arial, Sans-serif">from the Noun Project</text></svg>